<svg width="100" height="100" viewBox="0 0 100 100" fill="none" xmlns="http://www.w3.org/2000/svg">
<path d="M95.3125 0H93.75V5.20833C93.75 6.92708 92.6953 8.33333 91.4062 8.33333H83.5938C82.3047 8.33333 81.25 6.92708 81.25 5.20833V0H18.75V5.20833C18.75 6.92708 17.6953 8.33333 16.4062 8.33333H8.59375C7.30469 8.33333 6.25 6.92708 6.25 5.20833V0H4.6875C2.08984 0 0 2.78646 0 6.25V93.75C0 97.2135 2.08984 100 4.6875 100H6.25V94.7917C6.25 93.0729 7.30469 91.6667 8.59375 91.6667H16.4062C17.6953 91.6667 18.75 93.0729 18.75 94.7917V100H81.25V94.7917C81.25 93.0729 82.3047 91.6667 83.5938 91.6667H91.4062C92.6953 91.6667 93.75 93.0729 93.75 94.7917V100H95.3125C97.9102 100 100 97.2135 100 93.75V6.25C100 2.78646 97.9102 0 95.3125 0ZM18.75 80.2083C18.75 81.9271 17.6953 83.3333 16.4062 83.3333H8.59375C7.30469 83.3333 6.25 81.9271 6.25 80.2083V69.7917C6.25 68.0729 7.30469 66.6667 8.59375 66.6667H16.4062C17.6953 66.6667 18.75 68.0729 18.75 69.7917V80.2083ZM18.75 55.2083C18.75 56.9271 17.6953 58.3333 16.4062 58.3333H8.59375C7.30469 58.3333 6.25 56.9271 6.25 55.2083V44.7917C6.25 43.0729 7.30469 41.6667 8.59375 41.6667H16.4062C17.6953 41.6667 18.75 43.0729 18.75 44.7917V55.2083ZM18.75 30.2083C18.75 31.9271 17.6953 33.3333 16.4062 33.3333H8.59375C7.30469 33.3333 6.25 31.9271 6.25 30.2083V19.7917C6.25 18.0729 7.30469 16.6667 8.59375 16.6667H16.4062C17.6953 16.6667 18.75 18.0729 18.75 19.7917V30.2083ZM71.875 84.375C71.875 86.0937 70.8203 87.5 69.5312 87.5H30.4688C29.1797 87.5 28.125 86.0937 28.125 84.375V59.375C28.125 57.6562 29.1797 56.25 30.4688 56.25H69.5312C70.8203 56.25 71.875 57.6562 71.875 59.375V84.375ZM71.875 40.625C71.875 42.3437 70.8203 43.75 69.5312 43.75H30.4688C29.1797 43.75 28.125 42.3437 28.125 40.625V15.625C28.125 13.9062 29.1797 12.5 30.4688 12.5H69.5312C70.8203 12.5 71.875 13.9062 71.875 15.625V40.625ZM93.75 80.2083C93.75 81.9271 92.6953 83.3333 91.4062 83.3333H83.5938C82.3047 83.3333 81.25 81.9271 81.25 80.2083V69.7917C81.25 68.0729 82.3047 66.6667 83.5938 66.6667H91.4062C92.6953 66.6667 93.75 68.0729 93.75 69.7917V80.2083ZM93.75 55.2083C93.75 56.9271 92.6953 58.3333 91.4062 58.3333H83.5938C82.3047 58.3333 81.25 56.9271 81.25 55.2083V44.7917C81.25 43.0729 82.3047 41.6667 83.5938 41.6667H91.4062C92.6953 41.6667 93.75 43.0729 93.75 44.7917V55.2083ZM93.75 30.2083C93.75 31.9271 92.6953 33.3333 91.4062 33.3333H83.5938C82.3047 33.3333 81.25 31.9271 81.25 30.2083V19.7917C81.25 18.0729 82.3047 16.6667 83.5938 16.6667H91.4062C92.6953 16.6667 93.75 18.0729 93.75 19.7917V30.2083Z" fill="black"/>
</svg>
